<svg width="44" height="48" fill="none" xmlns="http://www.w3.org/2000/svg"><rect x="1.15" y="19.817" width="27.485" height="27.033" rx="8.85" stroke="#6DCCBB" stroke-width="2.3"/><path d="M42.519.498c-.772.326-1.563.62-2.342.921-.114.043-.247.056-.373.08-.013-.03-.032-.061-.045-.086.538-.393 1.083-.78 1.62-1.173-.018-.03-.031-.061-.05-.086-.791.178-1.601.295-2.36.614-.014-.036-.032-.073-.045-.104.209-.178.411-.356.62-.528-.006-.006-.012-.019-.019-.025-.48.246-.962.498-1.45.743-.012-.018-.018-.036-.031-.055l1.348-.792c-.614-.043-1.17.117-1.721.387-1.792.878-3.5 1.885-5.064 3.12-1.608 1.27-3.032 2.72-4.373 4.249-2.982 3.395-5.69 6.975-7.653 11.04a.345.345 0 01-.215.203c-.532 1.468-.88 3.027-1.747 4.317-.228.614-.468 1.228-.696 1.848a105.437 105.437 0 00-2.728 8.744c-.006.019-.019.037-.05.11-.108-.153-.203-.27-.28-.404-.714-1.204-1.417-2.42-2.132-3.623-1.07-1.787-2.14-3.574-3.216-5.355-.468-.774-1.26-1.179-2.019-1.02a3.57 3.57 0 00-.974.332 1.14 1.14 0 00-.475.54c-.108.29-.253.357-.532.314-.133-.025-.272-.006-.468-.006.095.258.183.49.253.724.07.227.114.46.165.688-.038.018-.07.037-.108.055-.386-.399-.778-.792-1.165-1.191-.044.025-.088.05-.132.068.158.466.265.964.487 1.4a129.04 129.04 0 002.209 4.108c1.645 2.947 3.506 5.784 4.93 8.848.412.878.697 1.818 1 2.739.12.375.317.62.678.78 1.867.823 4.45-.05 5.304-1.855.278-.59.367-1.252.557-1.879 1.012-3.334 1.962-6.687 3.063-9.99.608-1.818 1.367-3.593 2.089-5.38.247-1.19.785-2.284 1.24-3.42.254-.62.652-1.78 1.38-2.155.659-1.21 1.317-2.42 1.988-3.623 1.278-2.29 2.721-4.47 4.48-6.448 1.69-1.897 3.564-3.598 5.678-5.041 1.348-.921 2.779-1.701 4.26-2.407.19-.086.355-.215.595-.369-.57-.252-1.019-.153-1.481.043z" fill="#EEC664"/></svg>